<?xml version="1.0" encoding="utf-8"?>
<!-- Generator: Adobe Illustrator 22.0.1, SVG Export Plug-In . SVG Version: 6.00 Build 0)  -->
<svg version="1.1" id="Layer_1" xmlns="http://www.w3.org/2000/svg" xmlns:xlink="http://www.w3.org/1999/xlink" x="0px" y="0px"
	 viewBox="0 0 500 500" style="enable-background:new 0 0 500 500;" xml:space="preserve">
<style type="text/css">
	.st0{fill:#FFFFFF;}
	.st1{fill:url(#SVGID_1_);}
	.st2{fill:url(#SVGID_2_);}
	.st3{fill:url(#SVGID_3_);}
	.st4{fill:url(#SVGID_4_);}
</style>
<path class="st0" d="M467,499.4H32.4C14.6,499.4,0,484.8,0,467V32.4C0,14.6,14.6,0,32.4,0H467c17.8,0,32.4,14.6,32.4,32.4V467
	C499.4,484.8,484.8,499.4,467,499.4z"/>
<g>
	
		<linearGradient id="SVGID_1_" gradientUnits="userSpaceOnUse" x1="-1417.2251" y1="-148.9884" x2="-1255.4484" y2="-148.9884" gradientTransform="matrix(0 1 -1 0 181.1485 1666.9232)">
		<stop  offset="0" style="stop-color:#A8DAC8"/>
		<stop  offset="1" style="stop-color:#04637D"/>
	</linearGradient>
	<polygon class="st1" points="276.6,411.5 222.3,357.1 329.7,249.7 437.6,249.7 438,250.1 	"/>
</g>
<g>
	
		<linearGradient id="SVGID_2_" gradientUnits="userSpaceOnUse" x1="-1579.0017" y1="-148.9884" x2="-1417.2251" y2="-148.9884" gradientTransform="matrix(0 1 -1 0 181.1485 1666.9232)">
		<stop  offset="0" style="stop-color:#A8DAC8"/>
		<stop  offset="1" style="stop-color:#04637D"/>
	</linearGradient>
	<polygon class="st2" points="276.6,87.9 222.3,142.3 329.7,249.7 437.6,249.7 438,249.3 	"/>
</g>
<g>
	
		<linearGradient id="SVGID_3_" gradientUnits="userSpaceOnUse" x1="-1417.2251" y1="11.8892" x2="-1255.4484" y2="11.8892" gradientTransform="matrix(0 1 -1 0 181.1485 1666.9232)">
		<stop  offset="0" style="stop-color:#A8DAC8"/>
		<stop  offset="1" style="stop-color:#04637D"/>
	</linearGradient>
	<polygon class="st3" points="115.8,411.5 61.4,357.1 168.8,249.7 276.7,249.7 277.1,250.1 	"/>
</g>
<g>
	
		<linearGradient id="SVGID_4_" gradientUnits="userSpaceOnUse" x1="-1579.0017" y1="11.8892" x2="-1417.2251" y2="11.8892" gradientTransform="matrix(0 1 -1 0 181.1485 1666.9232)">
		<stop  offset="0" style="stop-color:#A8DAC8"/>
		<stop  offset="1" style="stop-color:#04637D"/>
	</linearGradient>
	<polygon class="st4" points="115.8,87.9 61.4,142.3 168.8,249.7 276.7,249.7 277.1,249.3 	"/>
</g>
</svg>
